{
    "asset" : {
        "generator" : "Khronos glTF Blender I/O v1.8.14",
        "version" : "2.0"
    },
    "scene" : 0,
    "scenes" : [
        {
            "name" : "Scene",
            "nodes" : [
                6
            ]
        }
    ],
    "nodes" : [
        {
            "mesh" : 0,
            "name" : "eyespheres.002",
            "rotation" : [
                0,
                0,
                0.006670988630503416,
                0.9999777674674988
            ],
            "scale" : [
                0.6119633316993713,
                0.6119633316993713,
                0.6119633316993713
            ]
        },
        {
            "mesh" : 1,
            "name" : "newpacmanTopm",
            "rotation" : [
                0.7071065902709961,
                -0.0006170670967549086,
                -0.0006170670385472476,
                0.7071064710617065
            ],
            "scale" : [
                0.6119632720947266,
                0.6119633316993713,
                0.6119632720947266
            ]
        },
        {
            "mesh" : 2,
            "name" : "newpacmanTopm.004",
            "rotation" : [
                0.7071065902709961,
                -0.0006170670967549086,
                -0.0006170670385472476,
                0.7071064710617065
            ],
            "scale" : [
                0.6119632720947266,
                0.6119633316993713,
                0.6119632720947266
            ]
        },
        {
            "children" : [
                0,
                1,
                2
            ],
            "name" : "Empty.002",
            "rotation" : [
                0,
                0,
                0.00174532865639776,
                1
            ],
            "scale" : [
                1.2229598760604858,
                1.2229598760604858,
                1.2229598760604858
            ]
        },
        {
            "mesh" : 3,
            "name" : "newpacmanBotCut",
            "rotation" : [
                0.7009969353675842,
                0.0927548035979271,
                0.0927547886967659,
                0.7009967565536499
            ],
            "scale" : [
                0.7484067678451538,
                0.7484068274497986,
                0.7484067678451538
            ]
        },
        {
            "mesh" : 4,
            "name" : "newpacmanBotCut.001",
            "rotation" : [
                0.7009969353675842,
                0.0927548035979271,
                0.0927547886967659,
                0.7009967565536499
            ],
            "scale" : [
                0.7484067678451538,
                0.7484068274497986,
                0.7484067678451538
            ]
        },
        {
            "children" : [
                3,
                4,
                5
            ],
            "name" : "Empty.003",
            "rotation" : [
                0,
                0,
                -0.0008726647356525064,
                1
            ],
            "scale" : [
                1.3361718654632568,
                1.3361718654632568,
                1.3361718654632568
            ]
        }
    ],
    "animations" : [
        {
            "channels" : [
                {
                    "sampler" : 0,
                    "target" : {
                        "node" : 3,
                        "path" : "translation"
                    }
                },
                {
                    "sampler" : 1,
                    "target" : {
                        "node" : 3,
                        "path" : "rotation"
                    }
                },
                {
                    "sampler" : 2,
                    "target" : {
                        "node" : 3,
                        "path" : "scale"
                    }
                }
            ],
            "name" : "Action.001",
            "samplers" : [
                {
                    "input" : 20,
                    "interpolation" : "LINEAR",
                    "output" : 21
                },
                {
                    "input" : 22,
                    "interpolation" : "LINEAR",
                    "output" : 23
                },
                {
                    "input" : 20,
                    "interpolation" : "LINEAR",
                    "output" : 24
                }
            ]
        },
        {
            "channels" : [
                {
                    "sampler" : 0,
                    "target" : {
                        "node" : 6,
                        "path" : "translation"
                    }
                },
                {
                    "sampler" : 1,
                    "target" : {
                        "node" : 6,
                        "path" : "rotation"
                    }
                },
                {
                    "sampler" : 2,
                    "target" : {
                        "node" : 6,
                        "path" : "scale"
                    }
                }
            ],
            "name" : "Action.002",
            "samplers" : [
                {
                    "input" : 20,
                    "interpolation" : "LINEAR",
                    "output" : 25
                },
                {
                    "input" : 22,
                    "interpolation" : "LINEAR",
                    "output" : 26
                },
                {
                    "input" : 20,
                    "interpolation" : "LINEAR",
                    "output" : 27
                }
            ]
        }
    ],
    "materials" : [
        {
            "doubleSided" : true,
            "name" : "Material.002",
            "pbrMetallicRoughness" : {
                "baseColorFactor" : [
                    0,
                    0,
                    0,
                    1
                ],
                "metallicFactor" : 0.1931818127632141,
                "roughnessFactor" : 0.09772727638483047
            }
        },
        {
            "doubleSided" : true,
            "emissiveFactor" : [
                0.1000000536441803,
                0.08000004410743777,
                0
            ],
            "name" : "Material.004",
            "pbrMetallicRoughness" : {
                "baseColorFactor" : [
                    1,
                    0.8000272512435913,
                    0,
                    1
                ],
                "metallicFactor" : 0.3863636255264282,
                "roughnessFactor" : 0.22045454382896423
            }
        },
        {
            "doubleSided" : true,
            "name" : "Material.001",
            "pbrMetallicRoughness" : {
                "baseColorFactor" : [
                    0,
                    0,
                    0,
                    1
                ],
                "metallicFactor" : 0.3863636255264282,
                "roughnessFactor" : 0.11136363446712494
            }
        }
    ],
    "meshes" : [
        {
            "name" : "Sphere.017",
            "primitives" : [
                {
                    "attributes" : {
                        "POSITION" : 0,
                        "NORMAL" : 1,
                        "TEXCOORD_0" : 2
                    },
                    "indices" : 3,
                    "material" : 0
                }
            ]
        },
        {
            "name" : "Sphere.016",
            "primitives" : [
                {
                    "attributes" : {
                        "POSITION" : 4,
                        "NORMAL" : 5,
                        "TEXCOORD_0" : 6
                    },
                    "indices" : 7,
                    "material" : 1
                }
            ]
        },
        {
            "name" : "Sphere.018",
            "primitives" : [
                {
                    "attributes" : {
                        "POSITION" : 8,
                        "NORMAL" : 9,
                        "TEXCOORD_0" : 10
                    },
                    "indices" : 11,
                    "material" : 2
                }
            ]
        },
        {
            "name" : "Sphere.024",
            "primitives" : [
                {
                    "attributes" : {
                        "POSITION" : 12,
                        "NORMAL" : 13,
                        "TEXCOORD_0" : 14
                    },
                    "indices" : 15,
                    "material" : 1
                }
            ]
        },
        {
            "name" : "Sphere.013",
            "primitives" : [
                {
                    "attributes" : {
                        "POSITION" : 16,
                        "NORMAL" : 17,
                        "TEXCOORD_0" : 18
                    },
                    "indices" : 19,
                    "material" : 0
                }
            ]
        }
    ],
    "accessors" : [
        {
            "bufferView" : 0,
            "componentType" : 5126,
            "count" : 1256,
            "max" : [
                0.8586016297340393,
                0.686410665512085,
                0.6582748889923096
            ],
            "min" : [
                0.49436432123184204,
                0.22678174078464508,
                -0.6582748889923096
            ],
            "type" : "VEC3"
        },
        {
            "bufferView" : 1,
            "componentType" : 5126,
            "count" : 1256,
            "type" : "VEC3"
        },
        {
            "bufferView" : 2,
            "componentType" : 5126,
            "count" : 1256,
            "type" : "VEC2"
        },
        {
            "bufferView" : 3,
            "componentType" : 5123,
            "count" : 5808,
            "type" : "SCALAR"
        },
        {
            "bufferView" : 4,
            "componentType" : 5126,
            "count" : 5328,
            "max" : [
                0.9871886968612671,
                0.9975767135620117,
                1.2276733230009995e-07
            ],
            "min" : [
                -0.9871880412101746,
                -0.9975767135620117,
                -0.9872304201126099
            ],
            "type" : "VEC3"
        },
        {
            "bufferView" : 5,
            "componentType" : 5126,
            "count" : 5328,
            "type" : "VEC3"
        },
        {
            "bufferView" : 6,
            "componentType" : 5126,
            "count" : 5328,
            "type" : "VEC2"
        },
        {
            "bufferView" : 7,
            "componentType" : 5123,
            "count" : 25344,
            "type" : "SCALAR"
        },
        {
            "bufferView" : 8,
            "componentType" : 5126,
            "count" : 128,
            "max" : [
                0.909883439540863,
                0.9197914600372314,
                -0.024487469345331192
            ],
            "min" : [
                -0.9099739193916321,
                -0.9197914600372314,
                -0.02766377106308937
            ],
            "type" : "VEC3"
        },
        {
            "bufferView" : 9,
            "componentType" : 5126,
            "count" : 128,
            "type" : "VEC3"
        },
        {
            "bufferView" : 10,
            "componentType" : 5126,
            "count" : 128,
            "type" : "VEC2"
        },
        {
            "bufferView" : 11,
            "componentType" : 5123,
            "count" : 378,
            "type" : "SCALAR"
        },
        {
            "bufferView" : 12,
            "componentType" : 5126,
            "count" : 6329,
            "max" : [
                0.9529892802238464,
                0.9975767135620117,
                0.9872307181358337
            ],
            "min" : [
                -0.9872304201126099,
                -0.9975767135620117,
                -0.25669005513191223
            ],
            "type" : "VEC3"
        },
        {
            "bufferView" : 13,
            "componentType" : 5126,
            "count" : 6329,
            "type" : "VEC3"
        },
        {
            "bufferView" : 14,
            "componentType" : 5126,
            "count" : 6329,
            "type" : "VEC2"
        },
        {
            "bufferView" : 15,
            "componentType" : 5123,
            "count" : 26664,
            "type" : "SCALAR"
        },
        {
            "bufferView" : 16,
            "componentType" : 5126,
            "count" : 391,
            "max" : [
                0.8714734315872192,
                0.9208372831344604,
                0.264812171459198
            ],
            "min" : [
                -0.8855160474777222,
                -0.9208269119262695,
                -0.20843759179115295
            ],
            "type" : "VEC3"
        },
        {
            "bufferView" : 17,
            "componentType" : 5126,
            "count" : 391,
            "type" : "VEC3"
        },
        {
            "bufferView" : 18,
            "componentType" : 5126,
            "count" : 391,
            "type" : "VEC2"
        },
        {
            "bufferView" : 19,
            "componentType" : 5123,
            "count" : 549,
            "type" : "SCALAR"
        },
        {
            "bufferView" : 20,
            "componentType" : 5126,
            "count" : 2,
            "max" : [
                0.6666666666666666
            ],
            "min" : [
                0.041666666666666664
            ],
            "type" : "SCALAR"
        },
        {
            "bufferView" : 21,
            "componentType" : 5126,
            "count" : 2,
            "type" : "VEC3"
        },
        {
            "bufferView" : 22,
            "componentType" : 5126,
            "count" : 16,
            "max" : [
                0.6666666666666666
            ],
            "min" : [
                0.041666666666666664
            ],
            "type" : "SCALAR"
        },
        {
            "bufferView" : 23,
            "componentType" : 5126,
            "count" : 16,
            "type" : "VEC4"
        },
        {
            "bufferView" : 24,
            "componentType" : 5126,
            "count" : 2,
            "type" : "VEC3"
        },
        {
            "bufferView" : 25,
            "componentType" : 5126,
            "count" : 2,
            "type" : "VEC3"
        },
        {
            "bufferView" : 26,
            "componentType" : 5126,
            "count" : 16,
            "type" : "VEC4"
        },
        {
            "bufferView" : 27,
            "componentType" : 5126,
            "count" : 2,
            "type" : "VEC3"
        }
    ],
    "bufferViews" : [
        {
            "buffer" : 0,
            "byteLength" : 15072,
            "byteOffset" : 0
        },
        {
            "buffer" : 0,
            "byteLength" : 15072,
            "byteOffset" : 15072
        },
        {
            "buffer" : 0,
            "byteLength" : 10048,
            "byteOffset" : 30144
        },
        {
            "buffer" : 0,
            "byteLength" : 11616,
            "byteOffset" : 40192
        },
        {
            "buffer" : 0,
            "byteLength" : 63936,
            "byteOffset" : 51808
        },
        {
            "buffer" : 0,
            "byteLength" : 63936,
            "byteOffset" : 115744
        },
        {
            "buffer" : 0,
            "byteLength" : 42624,
            "byteOffset" : 179680
        },
        {
            "buffer" : 0,
            "byteLength" : 50688,
            "byteOffset" : 222304
        },
        {
            "buffer" : 0,
            "byteLength" : 1536,
            "byteOffset" : 272992
        },
        {
            "buffer" : 0,
            "byteLength" : 1536,
            "byteOffset" : 274528
        },
        {
            "buffer" : 0,
            "byteLength" : 1024,
            "byteOffset" : 276064
        },
        {
            "buffer" : 0,
            "byteLength" : 756,
            "byteOffset" : 277088
        },
        {
            "buffer" : 0,
            "byteLength" : 75948,
            "byteOffset" : 277844
        },
        {
            "buffer" : 0,
            "byteLength" : 75948,
            "byteOffset" : 353792
        },
        {
            "buffer" : 0,
            "byteLength" : 50632,
            "byteOffset" : 429740
        },
        {
            "buffer" : 0,
            "byteLength" : 53328,
            "byteOffset" : 480372
        },
        {
            "buffer" : 0,
            "byteLength" : 4692,
            "byteOffset" : 533700
        },
        {
            "buffer" : 0,
            "byteLength" : 4692,
            "byteOffset" : 538392
        },
        {
            "buffer" : 0,
            "byteLength" : 3128,
            "byteOffset" : 543084
        },
        {
            "buffer" : 0,
            "byteLength" : 1098,
            "byteOffset" : 546212
        },
        {
            "buffer" : 0,
            "byteLength" : 8,
            "byteOffset" : 547312
        },
        {
            "buffer" : 0,
            "byteLength" : 24,
            "byteOffset" : 547320
        },
        {
            "buffer" : 0,
            "byteLength" : 64,
            "byteOffset" : 547344
        },
        {
            "buffer" : 0,
            "byteLength" : 256,
            "byteOffset" : 547408
        },
        {
            "buffer" : 0,
            "byteLength" : 24,
            "byteOffset" : 547664
        },
        {
            "buffer" : 0,
            "byteLength" : 24,
            "byteOffset" : 547688
        },
        {
            "buffer" : 0,
            "byteLength" : 256,
            "byteOffset" : 547712
        },
        {
            "buffer" : 0,
            "byteLength" : 24,
            "byteOffset" : 547968
        }
    ],
    "buffers" : [
        {
            "byteLength" : 547992,
            "uri" : "data:application/octet-stream;base64,"
        }
    ]
}
