{
    "asset" : {
        "generator" : "Khronos glTF Blender I/O v1.8.14",
        "version" : "2.0"
    },
    "extensionsUsed" : [
        "KHR_materials_clearcoat"
    ],
    "scene" : 0,
    "scenes" : [
        {
            "name" : "Scene",
            "nodes" : [
                0,
                1,
                2,
                3
            ]
        }
    ],
    "nodes" : [
        {
            "mesh" : 0,
            "name" : "ghosteyeBalls"
        },
        {
            "mesh" : 1,
            "name" : "ghostBot",
            "rotation" : [
                0,
                0.2393156737089157,
                0,
                0.9709418416023254
            ]
        },
        {
            "mesh" : 2,
            "name" : "ghostTop"
        },
        {
            "mesh" : 3,
            "name" : "ghostInsideEye"
        }
    ],
    "materials" : [
        {
            "doubleSided" : true,
            "emissiveFactor" : [
                0,
                0.03659136302539778,
                1
            ],
            "extensions" : {
                "KHR_materials_clearcoat" : {
                    "clearcoatFactor" : 1,
                    "clearcoatRoughnessFactor" : 0.029999999329447746
                }
            },
            "name" : "Material.003",
            "pbrMetallicRoughness" : {
                "baseColorFactor" : [
                    0,
                    0.009100866504013538,
                    1,
                    1
                ],
                "metallicFactor" : 0.7136363387107849,
                "roughnessFactor" : 0.656000018119812
            }
        },
        {
            "doubleSided" : true,
            "emissiveFactor" : [
                0.7000000476837158,
                0.7000000476837158,
                0.7000000476837158
            ],
            "name" : "eyeshine",
            "pbrMetallicRoughness" : {
                "baseColorFactor" : [
                    0.800000011920929,
                    0.800000011920929,
                    0.800000011920929,
                    1
                ],
                "metallicFactor" : 0,
                "roughnessFactor" : 0.5
            }
        },
        {
            "doubleSided" : true,
            "extensions" : {
                "KHR_materials_clearcoat" : {
                    "clearcoatFactor" : 0.5159090757369995,
                    "clearcoatRoughnessFactor" : 0.029999999329447746
                }
            },
            "name" : "Material.002",
            "pbrMetallicRoughness" : {
                "baseColorFactor" : [
                    1,
                    0,
                    0,
                    1
                ],
                "metallicFactor" : 0.28409090638160706,
                "roughnessFactor" : 0.32045453786849976
            }
        },
        {
            "doubleSided" : true,
            "emissiveFactor" : [
                0.40000003576278687,
                0.40000003576278687,
                0.40000003576278687
            ],
            "name" : "eyeinside",
            "pbrMetallicRoughness" : {
                "baseColorFactor" : [
                    0.800000011920929,
                    0.800000011920929,
                    0.800000011920929,
                    1
                ],
                "metallicFactor" : 0,
                "roughnessFactor" : 0.5
            }
        }
    ],
    "meshes" : [
        {
            "name" : "Sphere.011",
            "primitives" : [
                {
                    "attributes" : {
                        "POSITION" : 0,
                        "NORMAL" : 1,
                        "TEXCOORD_0" : 2
                    },
                    "indices" : 3,
                    "material" : 0
                },
                {
                    "attributes" : {
                        "POSITION" : 4,
                        "NORMAL" : 5,
                        "TEXCOORD_0" : 6
                    },
                    "indices" : 7,
                    "material" : 1
                }
            ]
        },
        {
            "name" : "bottomOfGhost",
            "primitives" : [
                {
                    "attributes" : {
                        "POSITION" : 8,
                        "NORMAL" : 9,
                        "TEXCOORD_0" : 10
                    },
                    "indices" : 11,
                    "material" : 2
                }
            ]
        },
        {
            "name" : "topPart",
            "primitives" : [
                {
                    "attributes" : {
                        "POSITION" : 12,
                        "NORMAL" : 13,
                        "TEXCOORD_0" : 14
                    },
                    "indices" : 15,
                    "material" : 2
                }
            ]
        },
        {
            "name" : "InsideEye",
            "primitives" : [
                {
                    "attributes" : {
                        "POSITION" : 16,
                        "NORMAL" : 17,
                        "TEXCOORD_0" : 18
                    },
                    "indices" : 19,
                    "material" : 3
                }
            ]
        }
    ],
    "accessors" : [
        {
            "bufferView" : 0,
            "componentType" : 5126,
            "count" : 1110,
            "max" : [
                0.6309613585472107,
                -0.03158208727836609,
                -0.3020473122596741
            ],
            "min" : [
                -0.6309613585472107,
                -0.4425850510597229,
                -0.7091012597084045
            ],
            "type" : "VEC3"
        },
        {
            "bufferView" : 1,
            "componentType" : 5126,
            "count" : 1110,
            "type" : "VEC3"
        },
        {
            "bufferView" : 2,
            "componentType" : 5126,
            "count" : 1110,
            "type" : "VEC2"
        },
        {
            "bufferView" : 3,
            "componentType" : 5123,
            "count" : 5652,
            "type" : "SCALAR"
        },
        {
            "bufferView" : 4,
            "componentType" : 5126,
            "count" : 32,
            "max" : [
                0.5041018724441528,
                -0.15844154357910156,
                -0.6829549670219421
            ],
            "min" : [
                -0.5041018724441528,
                -0.27717486023902893,
                -0.7130498886108398
            ],
            "type" : "VEC3"
        },
        {
            "bufferView" : 5,
            "componentType" : 5126,
            "count" : 32,
            "type" : "VEC3"
        },
        {
            "bufferView" : 6,
            "componentType" : 5126,
            "count" : 32,
            "type" : "VEC2"
        },
        {
            "bufferView" : 7,
            "componentType" : 5123,
            "count" : 108,
            "type" : "SCALAR"
        },
        {
            "bufferView" : 8,
            "componentType" : 5126,
            "count" : 645,
            "max" : [
                1.0659925937652588,
                -1.4363905191421509,
                1.0659923553466797
            ],
            "min" : [
                -1.0659918785095215,
                -1.7892435789108276,
                -1.065991759300232
            ],
            "type" : "VEC3"
        },
        {
            "bufferView" : 9,
            "componentType" : 5126,
            "count" : 645,
            "type" : "VEC3"
        },
        {
            "bufferView" : 10,
            "componentType" : 5126,
            "count" : 645,
            "type" : "VEC2"
        },
        {
            "bufferView" : 11,
            "componentType" : 5123,
            "count" : 3072,
            "type" : "SCALAR"
        },
        {
            "bufferView" : 12,
            "componentType" : 5126,
            "count" : 6670,
            "max" : [
                1.0649439096450806,
                0.978796660900116,
                1.0649434328079224
            ],
            "min" : [
                -1.0649429559707642,
                -1.43639075756073,
                -1.0649429559707642
            ],
            "type" : "VEC3"
        },
        {
            "bufferView" : 13,
            "componentType" : 5126,
            "count" : 6670,
            "type" : "VEC3"
        },
        {
            "bufferView" : 14,
            "componentType" : 5126,
            "count" : 6670,
            "type" : "VEC2"
        },
        {
            "bufferView" : 15,
            "componentType" : 5123,
            "count" : 35373,
            "type" : "SCALAR"
        },
        {
            "bufferView" : 16,
            "componentType" : 5126,
            "count" : 977,
            "max" : [
                0.7191540598869324,
                0.11223877966403961,
                -0.5367480516433716
            ],
            "min" : [
                -0.719153642654419,
                -0.5121612548828125,
                -0.9888824224472046
            ],
            "type" : "VEC3"
        },
        {
            "bufferView" : 17,
            "componentType" : 5126,
            "count" : 977,
            "type" : "VEC3"
        },
        {
            "bufferView" : 18,
            "componentType" : 5126,
            "count" : 977,
            "type" : "VEC2"
        },
        {
            "bufferView" : 19,
            "componentType" : 5123,
            "count" : 3783,
            "type" : "SCALAR"
        }
    ],
    "bufferViews" : [
        {
            "buffer" : 0,
            "byteLength" : 13320,
            "byteOffset" : 0
        },
        {
            "buffer" : 0,
            "byteLength" : 13320,
            "byteOffset" : 13320
        },
        {
            "buffer" : 0,
            "byteLength" : 8880,
            "byteOffset" : 26640
        },
        {
            "buffer" : 0,
            "byteLength" : 11304,
            "byteOffset" : 35520
        },
        {
            "buffer" : 0,
            "byteLength" : 384,
            "byteOffset" : 46824
        },
        {
            "buffer" : 0,
            "byteLength" : 384,
            "byteOffset" : 47208
        },
        {
            "buffer" : 0,
            "byteLength" : 256,
            "byteOffset" : 47592
        },
        {
            "buffer" : 0,
            "byteLength" : 216,
            "byteOffset" : 47848
        },
        {
            "buffer" : 0,
            "byteLength" : 7740,
            "byteOffset" : 48064
        },
        {
            "buffer" : 0,
            "byteLength" : 7740,
            "byteOffset" : 55804
        },
        {
            "buffer" : 0,
            "byteLength" : 5160,
            "byteOffset" : 63544
        },
        {
            "buffer" : 0,
            "byteLength" : 6144,
            "byteOffset" : 68704
        },
        {
            "buffer" : 0,
            "byteLength" : 80040,
            "byteOffset" : 74848
        },
        {
            "buffer" : 0,
            "byteLength" : 80040,
            "byteOffset" : 154888
        },
        {
            "buffer" : 0,
            "byteLength" : 53360,
            "byteOffset" : 234928
        },
        {
            "buffer" : 0,
            "byteLength" : 70746,
            "byteOffset" : 288288
        },
        {
            "buffer" : 0,
            "byteLength" : 11724,
            "byteOffset" : 359036
        },
        {
            "buffer" : 0,
            "byteLength" : 11724,
            "byteOffset" : 370760
        },
        {
            "buffer" : 0,
            "byteLength" : 7816,
            "byteOffset" : 382484
        },
        {
            "buffer" : 0,
            "byteLength" : 7566,
            "byteOffset" : 390300
        }
    ],
    "buffers" : [
        {
            "byteLength" : 397868,
            "uri" : "data:application/octet-stream;base64,"
        }
    ]
}
