{
    "asset" : {
        "generator" : "Khronos glTF Blender I/O v1.8.14",
        "version" : "2.0"
    },
    "extensionsUsed" : [
        "KHR_materials_transmission"
    ],
    "scene" : 0,
    "scenes" : [
        {
            "name" : "Scene",
            "nodes" : [
                0,
                1,
                2,
                3
            ]
        }
    ],
    "nodes" : [
        {
            "mesh" : 0,
            "name" : "NormalBlocking",
            "scale" : [
                21,
                1,
                22
            ],
            "translation" : [
                20,
                2.0999999046325684,
                -21
            ]
        },
        {
            "mesh" : 1,
            "name" : "wholemapallcombined",
            "scale" : [
                2,
                1,
                1
            ],
            "translation" : [
                5,
                1,
                -32
            ]
        },
        {
            "mesh" : 2,
            "name" : "wholemapallcombined.001",
            "scale" : [
                2,
                1,
                1
            ],
            "translation" : [
                -37,
                1,
                -32
            ]
        },
        {
            "mesh" : 3,
            "name" : "wholemapallcombined.002",
            "scale" : [
                2,
                1,
                1
            ],
            "translation" : [
                47,
                1,
                -32
            ]
        }
    ],
    "materials" : [
        {
            "alphaCutoff" : 0.5,
            "alphaMode" : "MASK",
            "doubleSided" : true,
            "extensions" : {
                "KHR_materials_transmission" : {
                    "transmissionFactor" : 1
                }
            },
            "name" : "Material",
            "pbrMetallicRoughness" : {
                "baseColorFactor" : [
                    0.800000011920929,
                    0.800000011920929,
                    0.800000011920929,
                    0
                ],
                "metallicFactor" : 0,
                "roughnessFactor" : 0.5
            }
        },
        {
            "doubleSided" : true,
            "emissiveFactor" : [
                0.09999999403953552,
                0.0004334281871659629,
                0.00036578753645494233
            ],
            "name" : "walls",
            "pbrMetallicRoughness" : {
                "baseColorFactor" : [
                    0.006829868536442518,
                    0,
                    0.8000000715255737,
                    1
                ],
                "metallicFactor" : 0.8136363625526428,
                "roughnessFactor" : 0.15909092128276825
            }
        }
    ],
    "meshes" : [
        {
            "name" : "Plane.004",
            "primitives" : [
                {
                    "attributes" : {
                        "POSITION" : 0,
                        "NORMAL" : 1,
                        "TEXCOORD_0" : 2
                    },
                    "indices" : 3,
                    "material" : 0
                }
            ]
        },
        {
            "name" : "Cube.067",
            "primitives" : [
                {
                    "attributes" : {
                        "POSITION" : 4,
                        "NORMAL" : 5,
                        "TEXCOORD_0" : 6
                    },
                    "indices" : 7,
                    "material" : 1
                }
            ]
        },
        {
            "name" : "Cube.001",
            "primitives" : [
                {
                    "attributes" : {
                        "POSITION" : 8,
                        "NORMAL" : 9,
                        "TEXCOORD_0" : 10
                    },
                    "indices" : 7,
                    "material" : 1
                }
            ]
        },
        {
            "name" : "Cube.002",
            "primitives" : [
                {
                    "attributes" : {
                        "POSITION" : 11,
                        "NORMAL" : 12,
                        "TEXCOORD_0" : 13
                    },
                    "indices" : 7,
                    "material" : 1
                }
            ]
        }
    ],
    "accessors" : [
        {
            "bufferView" : 0,
            "componentType" : 5126,
            "count" : 204,
            "max" : [
                1.0952380895614624,
                0,
                0.9999999403953552
            ],
            "min" : [
                -1.0952380895614624,
                -2.1490678787231445,
                -1
            ],
            "type" : "VEC3"
        },
        {
            "bufferView" : 1,
            "componentType" : 5126,
            "count" : 204,
            "type" : "VEC3"
        },
        {
            "bufferView" : 2,
            "componentType" : 5126,
            "count" : 204,
            "type" : "VEC2"
        },
        {
            "bufferView" : 3,
            "componentType" : 5123,
            "count" : 450,
            "type" : "SCALAR"
        },
        {
            "bufferView" : 4,
            "componentType" : 5126,
            "count" : 4006,
            "max" : [
                18,
                1,
                33
            ],
            "min" : [
                -3.013967752456665,
                -1,
                -11
            ],
            "type" : "VEC3"
        },
        {
            "bufferView" : 5,
            "componentType" : 5126,
            "count" : 4006,
            "type" : "VEC3"
        },
        {
            "bufferView" : 6,
            "componentType" : 5126,
            "count" : 4006,
            "type" : "VEC2"
        },
        {
            "bufferView" : 7,
            "componentType" : 5123,
            "count" : 14322,
            "type" : "SCALAR"
        },
        {
            "bufferView" : 8,
            "componentType" : 5126,
            "count" : 4006,
            "max" : [
                18,
                1,
                33
            ],
            "min" : [
                -3.013967752456665,
                -1,
                -11
            ],
            "type" : "VEC3"
        },
        {
            "bufferView" : 9,
            "componentType" : 5126,
            "count" : 4006,
            "type" : "VEC3"
        },
        {
            "bufferView" : 10,
            "componentType" : 5126,
            "count" : 4006,
            "type" : "VEC2"
        },
        {
            "bufferView" : 11,
            "componentType" : 5126,
            "count" : 4006,
            "max" : [
                18,
                1,
                33
            ],
            "min" : [
                -3.013967752456665,
                -1,
                -11
            ],
            "type" : "VEC3"
        },
        {
            "bufferView" : 12,
            "componentType" : 5126,
            "count" : 4006,
            "type" : "VEC3"
        },
        {
            "bufferView" : 13,
            "componentType" : 5126,
            "count" : 4006,
            "type" : "VEC2"
        }
    ],
    "bufferViews" : [
        {
            "buffer" : 0,
            "byteLength" : 2448,
            "byteOffset" : 0
        },
        {
            "buffer" : 0,
            "byteLength" : 2448,
            "byteOffset" : 2448
        },
        {
            "buffer" : 0,
            "byteLength" : 1632,
            "byteOffset" : 4896
        },
        {
            "buffer" : 0,
            "byteLength" : 900,
            "byteOffset" : 6528
        },
        {
            "buffer" : 0,
            "byteLength" : 48072,
            "byteOffset" : 7428
        },
        {
            "buffer" : 0,
            "byteLength" : 48072,
            "byteOffset" : 55500
        },
        {
            "buffer" : 0,
            "byteLength" : 32048,
            "byteOffset" : 103572
        },
        {
            "buffer" : 0,
            "byteLength" : 28644,
            "byteOffset" : 135620
        },
        {
            "buffer" : 0,
            "byteLength" : 48072,
            "byteOffset" : 164264
        },
        {
            "buffer" : 0,
            "byteLength" : 48072,
            "byteOffset" : 212336
        },
        {
            "buffer" : 0,
            "byteLength" : 32048,
            "byteOffset" : 260408
        },
        {
            "buffer" : 0,
            "byteLength" : 48072,
            "byteOffset" : 292456
        },
        {
            "buffer" : 0,
            "byteLength" : 48072,
            "byteOffset" : 340528
        },
        {
            "buffer" : 0,
            "byteLength" : 32048,
            "byteOffset" : 388600
        }
    ],
    "buffers" : [
        {
            "byteLength" : 420648,
            "uri" : "data:application/octet-stream;base64,"
        }
    ]
}
