{
    "asset" : {
        "generator" : "Khronos glTF Blender I/O v1.8.14",
        "version" : "2.0"
    },
    "extensionsUsed" : [
        "KHR_materials_clearcoat",
        "KHR_materials_transmission"
    ],
    "scene" : 0,
    "scenes" : [
        {
            "name" : "Scene",
            "nodes" : [
                0,
                1,
                2,
                3
            ]
        }
    ],
    "nodes" : [
        {
            "mesh" : 0,
            "name" : "floor",
            "scale" : [
                2,
                1,
                1
            ],
            "translation" : [
                5,
                1,
                -32
            ]
        },
        {
            "mesh" : 1,
            "name" : "allmaptest"
        },
        {
            "mesh" : 2,
            "name" : "blockEntrance",
            "scale" : [
                21,
                1,
                22
            ],
            "translation" : [
                20,
                2.0999999046325684,
                -21
            ]
        },
        {
            "mesh" : 3,
            "name" : "NormalBlocking",
            "scale" : [
                21,
                1,
                22
            ],
            "translation" : [
                20,
                2.0999999046325684,
                -21
            ]
        }
    ],
    "materials" : [
        {
            "doubleSided" : true,
            "extensions" : {
                "KHR_materials_clearcoat" : {
                    "clearcoatFactor" : 0.30909091234207153,
                    "clearcoatRoughnessFactor" : 0.029999999329447746
                }
            },
            "name" : "walls.001",
            "pbrMetallicRoughness" : {
                "baseColorFactor" : [
                    0.0013515230966731906,
                    0.0010165354469791055,
                    0.016367154195904732,
                    1
                ],
                "metallicFactor" : 0.07045454531908035,
                "roughnessFactor" : 0.20454546809196472
            }
        },
        {
            "doubleSided" : true,
            "emissiveFactor" : [
                0.0007857920133595431,
                0.00102565058912929,
                0.020386728919343344
            ],
            "name" : "walls",
            "pbrMetallicRoughness" : {
                "baseColorFactor" : [
                    0,
                    0.008019243367016315,
                    1,
                    1
                ],
                "metallicFactor" : 0,
                "roughnessFactor" : 0.302272766828537
            }
        },
        {
            "alphaCutoff" : 0.5,
            "alphaMode" : "MASK",
            "doubleSided" : true,
            "extensions" : {
                "KHR_materials_transmission" : {
                    "transmissionFactor" : 1
                }
            },
            "name" : "Material",
            "pbrMetallicRoughness" : {
                "baseColorFactor" : [
                    0.800000011920929,
                    0.800000011920929,
                    0.800000011920929,
                    0
                ],
                "metallicFactor" : 0,
                "roughnessFactor" : 0.5
            }
        }
    ],
    "meshes" : [
        {
            "name" : "Cube.062",
            "primitives" : [
                {
                    "attributes" : {
                        "POSITION" : 0,
                        "NORMAL" : 1,
                        "TEXCOORD_0" : 2
                    },
                    "indices" : 3,
                    "material" : 0
                }
            ]
        },
        {
            "name" : "Cube.036",
            "primitives" : [
                {
                    "attributes" : {
                        "POSITION" : 4,
                        "NORMAL" : 5,
                        "TEXCOORD_0" : 6
                    },
                    "indices" : 7,
                    "material" : 1
                }
            ]
        },
        {
            "name" : "Plane.005",
            "primitives" : [
                {
                    "attributes" : {
                        "POSITION" : 8,
                        "NORMAL" : 9,
                        "TEXCOORD_0" : 10
                    },
                    "indices" : 3,
                    "material" : 2
                }
            ]
        },
        {
            "name" : "Plane.004",
            "primitives" : [
                {
                    "attributes" : {
                        "POSITION" : 11,
                        "NORMAL" : 12,
                        "TEXCOORD_0" : 13
                    },
                    "indices" : 14,
                    "material" : 2
                }
            ]
        }
    ],
    "accessors" : [
        {
            "bufferView" : 0,
            "componentType" : 5126,
            "count" : 4,
            "max" : [
                17.998294830322266,
                -1,
                32.97175979614258
            ],
            "min" : [
                -3.013967752456665,
                -1,
                -10.956750869750977
            ],
            "type" : "VEC3"
        },
        {
            "bufferView" : 1,
            "componentType" : 5126,
            "count" : 4,
            "type" : "VEC3"
        },
        {
            "bufferView" : 2,
            "componentType" : 5126,
            "count" : 4,
            "type" : "VEC2"
        },
        {
            "bufferView" : 3,
            "componentType" : 5123,
            "count" : 6,
            "type" : "SCALAR"
        },
        {
            "bufferView" : 4,
            "componentType" : 5126,
            "count" : 13265,
            "max" : [
                41,
                2,
                1
            ],
            "min" : [
                -1,
                0,
                -43
            ],
            "type" : "VEC3"
        },
        {
            "bufferView" : 5,
            "componentType" : 5126,
            "count" : 13265,
            "type" : "VEC3"
        },
        {
            "bufferView" : 6,
            "componentType" : 5126,
            "count" : 13265,
            "type" : "VEC2"
        },
        {
            "bufferView" : 7,
            "componentType" : 5123,
            "count" : 49536,
            "type" : "SCALAR"
        },
        {
            "bufferView" : 8,
            "componentType" : 5126,
            "count" : 4,
            "max" : [
                0.0476190447807312,
                0,
                -0.18181824684143066
            ],
            "min" : [
                -0.0476190447807312,
                -2.0159707069396973,
                -0.18181824684143066
            ],
            "type" : "VEC3"
        },
        {
            "bufferView" : 9,
            "componentType" : 5126,
            "count" : 4,
            "type" : "VEC3"
        },
        {
            "bufferView" : 10,
            "componentType" : 5126,
            "count" : 4,
            "type" : "VEC2"
        },
        {
            "bufferView" : 11,
            "componentType" : 5126,
            "count" : 188,
            "max" : [
                1.0952380895614624,
                0,
                0.9999999403953552
            ],
            "min" : [
                -1.0952380895614624,
                -2.090160369873047,
                -1
            ],
            "type" : "VEC3"
        },
        {
            "bufferView" : 12,
            "componentType" : 5126,
            "count" : 188,
            "type" : "VEC3"
        },
        {
            "bufferView" : 13,
            "componentType" : 5126,
            "count" : 188,
            "type" : "VEC2"
        },
        {
            "bufferView" : 14,
            "componentType" : 5123,
            "count" : 444,
            "type" : "SCALAR"
        }
    ],
    "bufferViews" : [
        {
            "buffer" : 0,
            "byteLength" : 48,
            "byteOffset" : 0
        },
        {
            "buffer" : 0,
            "byteLength" : 48,
            "byteOffset" : 48
        },
        {
            "buffer" : 0,
            "byteLength" : 32,
            "byteOffset" : 96
        },
        {
            "buffer" : 0,
            "byteLength" : 12,
            "byteOffset" : 128
        },
        {
            "buffer" : 0,
            "byteLength" : 159180,
            "byteOffset" : 140
        },
        {
            "buffer" : 0,
            "byteLength" : 159180,
            "byteOffset" : 159320
        },
        {
            "buffer" : 0,
            "byteLength" : 106120,
            "byteOffset" : 318500
        },
        {
            "buffer" : 0,
            "byteLength" : 99072,
            "byteOffset" : 424620
        },
        {
            "buffer" : 0,
            "byteLength" : 48,
            "byteOffset" : 523692
        },
        {
            "buffer" : 0,
            "byteLength" : 48,
            "byteOffset" : 523740
        },
        {
            "buffer" : 0,
            "byteLength" : 32,
            "byteOffset" : 523788
        },
        {
            "buffer" : 0,
            "byteLength" : 2256,
            "byteOffset" : 523820
        },
        {
            "buffer" : 0,
            "byteLength" : 2256,
            "byteOffset" : 526076
        },
        {
            "buffer" : 0,
            "byteLength" : 1504,
            "byteOffset" : 528332
        },
        {
            "buffer" : 0,
            "byteLength" : 888,
            "byteOffset" : 529836
        }
    ],
    "buffers" : [
        {
            "byteLength" : 530724,
            "uri" : "data:application/octet-stream;base64,"
        }
    ]
}
