{
    "asset" : {
        "generator" : "Khronos glTF Blender I/O v1.8.14",
        "version" : "2.0"
    },
    "extensionsUsed" : [
        "KHR_materials_transmission",
        "KHR_materials_clearcoat"
    ],
    "scene" : 0,
    "scenes" : [
        {
            "name" : "Scene",
            "nodes" : [
                0,
                1,
                2,
                3,
                4,
                5
            ]
        }
    ],
    "nodes" : [
        {
            "mesh" : 0,
            "name" : "superFood"
        },
        {
            "mesh" : 1,
            "name" : "floor",
            "scale" : [
                2,
                1,
                1
            ],
            "translation" : [
                5,
                1,
                -32
            ]
        },
        {
            "mesh" : 2,
            "name" : "allmaptest"
        },
        {
            "mesh" : 3,
            "name" : "allmaptest.003"
        },
        {
            "mesh" : 4,
            "name" : "blockEntrance",
            "scale" : [
                21,
                1,
                22
            ],
            "translation" : [
                20,
                2.0999999046325684,
                -21
            ]
        },
        {
            "mesh" : 5,
            "name" : "NormalBlocking",
            "scale" : [
                21,
                1,
                22
            ],
            "translation" : [
                20,
                2.0999999046325684,
                -21
            ]
        }
    ],
    "materials" : [
        {
            "alphaCutoff" : 0.5,
            "alphaMode" : "MASK",
            "doubleSided" : true,
            "extensions" : {
                "KHR_materials_transmission" : {
                    "transmissionFactor" : 1
                }
            },
            "name" : "Material",
            "pbrMetallicRoughness" : {
                "baseColorFactor" : [
                    0.800000011920929,
                    0.800000011920929,
                    0.800000011920929,
                    0
                ],
                "metallicFactor" : 0,
                "roughnessFactor" : 0.5
            }
        },
        {
            "doubleSided" : true,
            "extensions" : {
                "KHR_materials_clearcoat" : {
                    "clearcoatFactor" : 0.30909091234207153,
                    "clearcoatRoughnessFactor" : 0.029999999329447746
                }
            },
            "name" : "walls.001",
            "pbrMetallicRoughness" : {
                "baseColorFactor" : [
                    0.0014517816016450524,
                    0,
                    0.014534863643348217,
                    1
                ],
                "metallicFactor" : 0.07045454531908035,
                "roughnessFactor" : 0.20454546809196472
            }
        },
        {
            "doubleSided" : true,
            "emissiveFactor" : [
                0.0007857920133595431,
                0.00102565058912929,
                0.020386728919343344
            ],
            "name" : "walls",
            "pbrMetallicRoughness" : {
                "baseColorFactor" : [
                    0,
                    0.004959692247211933,
                    0.4542004466056824,
                    1
                ],
                "metallicFactor" : 0,
                "roughnessFactor" : 0.302272766828537
            }
        }
    ],
    "meshes" : [
        {
            "name" : "Plane.002",
            "primitives" : [
                {
                    "attributes" : {
                        "POSITION" : 0,
                        "NORMAL" : 1,
                        "TEXCOORD_0" : 2
                    },
                    "indices" : 3,
                    "material" : 0
                }
            ]
        },
        {
            "name" : "Cube.062",
            "primitives" : [
                {
                    "attributes" : {
                        "POSITION" : 4,
                        "NORMAL" : 5,
                        "TEXCOORD_0" : 6
                    },
                    "indices" : 7,
                    "material" : 1
                }
            ]
        },
        {
            "name" : "Cube.036",
            "primitives" : [
                {
                    "attributes" : {
                        "POSITION" : 8,
                        "NORMAL" : 9,
                        "TEXCOORD_0" : 10
                    },
                    "indices" : 11,
                    "material" : 2
                }
            ]
        },
        {
            "name" : "Cube.039",
            "primitives" : [
                {
                    "attributes" : {
                        "POSITION" : 12,
                        "NORMAL" : 13,
                        "TEXCOORD_0" : 14
                    },
                    "indices" : 15,
                    "material" : 2
                }
            ]
        },
        {
            "name" : "Plane.005",
            "primitives" : [
                {
                    "attributes" : {
                        "POSITION" : 16,
                        "NORMAL" : 17,
                        "TEXCOORD_0" : 18
                    },
                    "indices" : 7,
                    "material" : 0
                }
            ]
        },
        {
            "name" : "Plane.004",
            "primitives" : [
                {
                    "attributes" : {
                        "POSITION" : 19,
                        "NORMAL" : 20,
                        "TEXCOORD_0" : 21
                    },
                    "indices" : 22,
                    "material" : 0
                }
            ]
        }
    ],
    "accessors" : [
        {
            "bufferView" : 0,
            "componentType" : 5126,
            "count" : 20,
            "max" : [
                39,
                4.132906913757324,
                -9
            ],
            "min" : [
                1,
                4.132906913757324,
                -39
            ],
            "type" : "VEC3"
        },
        {
            "bufferView" : 1,
            "componentType" : 5126,
            "count" : 20,
            "type" : "VEC3"
        },
        {
            "bufferView" : 2,
            "componentType" : 5126,
            "count" : 20,
            "type" : "VEC2"
        },
        {
            "bufferView" : 3,
            "componentType" : 5123,
            "count" : 30,
            "type" : "SCALAR"
        },
        {
            "bufferView" : 4,
            "componentType" : 5126,
            "count" : 4,
            "max" : [
                17.998294830322266,
                -1,
                32.97175979614258
            ],
            "min" : [
                -3.013967752456665,
                -1,
                -10.956750869750977
            ],
            "type" : "VEC3"
        },
        {
            "bufferView" : 5,
            "componentType" : 5126,
            "count" : 4,
            "type" : "VEC3"
        },
        {
            "bufferView" : 6,
            "componentType" : 5126,
            "count" : 4,
            "type" : "VEC2"
        },
        {
            "bufferView" : 7,
            "componentType" : 5123,
            "count" : 6,
            "type" : "SCALAR"
        },
        {
            "bufferView" : 8,
            "componentType" : 5126,
            "count" : 13265,
            "max" : [
                41,
                2,
                1
            ],
            "min" : [
                -1,
                0,
                -43
            ],
            "type" : "VEC3"
        },
        {
            "bufferView" : 9,
            "componentType" : 5126,
            "count" : 13265,
            "type" : "VEC3"
        },
        {
            "bufferView" : 10,
            "componentType" : 5126,
            "count" : 13265,
            "type" : "VEC2"
        },
        {
            "bufferView" : 11,
            "componentType" : 5123,
            "count" : 48504,
            "type" : "SCALAR"
        },
        {
            "bufferView" : 12,
            "componentType" : 5126,
            "count" : 568,
            "max" : [
                40.900001525878906,
                2,
                0.9000000953674316
            ],
            "min" : [
                -0.9000000953674316,
                2,
                -42.900001525878906
            ],
            "type" : "VEC3"
        },
        {
            "bufferView" : 13,
            "componentType" : 5126,
            "count" : 568,
            "type" : "VEC3"
        },
        {
            "bufferView" : 14,
            "componentType" : 5126,
            "count" : 568,
            "type" : "VEC2"
        },
        {
            "bufferView" : 15,
            "componentType" : 5123,
            "count" : 1032,
            "type" : "SCALAR"
        },
        {
            "bufferView" : 16,
            "componentType" : 5126,
            "count" : 4,
            "max" : [
                0.0476190447807312,
                0,
                -0.18181824684143066
            ],
            "min" : [
                -0.0476190447807312,
                -2.0159707069396973,
                -0.18181824684143066
            ],
            "type" : "VEC3"
        },
        {
            "bufferView" : 17,
            "componentType" : 5126,
            "count" : 4,
            "type" : "VEC3"
        },
        {
            "bufferView" : 18,
            "componentType" : 5126,
            "count" : 4,
            "type" : "VEC2"
        },
        {
            "bufferView" : 19,
            "componentType" : 5126,
            "count" : 188,
            "max" : [
                1.0952380895614624,
                0,
                0.9999999403953552
            ],
            "min" : [
                -1.0952380895614624,
                -2.090160369873047,
                -1
            ],
            "type" : "VEC3"
        },
        {
            "bufferView" : 20,
            "componentType" : 5126,
            "count" : 188,
            "type" : "VEC3"
        },
        {
            "bufferView" : 21,
            "componentType" : 5126,
            "count" : 188,
            "type" : "VEC2"
        },
        {
            "bufferView" : 22,
            "componentType" : 5123,
            "count" : 444,
            "type" : "SCALAR"
        }
    ],
    "bufferViews" : [
        {
            "buffer" : 0,
            "byteLength" : 240,
            "byteOffset" : 0
        },
        {
            "buffer" : 0,
            "byteLength" : 240,
            "byteOffset" : 240
        },
        {
            "buffer" : 0,
            "byteLength" : 160,
            "byteOffset" : 480
        },
        {
            "buffer" : 0,
            "byteLength" : 60,
            "byteOffset" : 640
        },
        {
            "buffer" : 0,
            "byteLength" : 48,
            "byteOffset" : 700
        },
        {
            "buffer" : 0,
            "byteLength" : 48,
            "byteOffset" : 748
        },
        {
            "buffer" : 0,
            "byteLength" : 32,
            "byteOffset" : 796
        },
        {
            "buffer" : 0,
            "byteLength" : 12,
            "byteOffset" : 828
        },
        {
            "buffer" : 0,
            "byteLength" : 159180,
            "byteOffset" : 840
        },
        {
            "buffer" : 0,
            "byteLength" : 159180,
            "byteOffset" : 160020
        },
        {
            "buffer" : 0,
            "byteLength" : 106120,
            "byteOffset" : 319200
        },
        {
            "buffer" : 0,
            "byteLength" : 97008,
            "byteOffset" : 425320
        },
        {
            "buffer" : 0,
            "byteLength" : 6816,
            "byteOffset" : 522328
        },
        {
            "buffer" : 0,
            "byteLength" : 6816,
            "byteOffset" : 529144
        },
        {
            "buffer" : 0,
            "byteLength" : 4544,
            "byteOffset" : 535960
        },
        {
            "buffer" : 0,
            "byteLength" : 2064,
            "byteOffset" : 540504
        },
        {
            "buffer" : 0,
            "byteLength" : 48,
            "byteOffset" : 542568
        },
        {
            "buffer" : 0,
            "byteLength" : 48,
            "byteOffset" : 542616
        },
        {
            "buffer" : 0,
            "byteLength" : 32,
            "byteOffset" : 542664
        },
        {
            "buffer" : 0,
            "byteLength" : 2256,
            "byteOffset" : 542696
        },
        {
            "buffer" : 0,
            "byteLength" : 2256,
            "byteOffset" : 544952
        },
        {
            "buffer" : 0,
            "byteLength" : 1504,
            "byteOffset" : 547208
        },
        {
            "buffer" : 0,
            "byteLength" : 888,
            "byteOffset" : 548712
        }
    ],
    "buffers" : [
        {
            "byteLength" : 549600,
            "uri" : "data:application/octet-stream;base64,"
        }
    ]
}
