{
    "asset" : {
        "generator" : "Khronos glTF Blender I/O v1.8.14",
        "version" : "2.0"
    },
    "extensionsUsed" : [
        "KHR_materials_clearcoat"
    ],
    "scene" : 0,
    "scenes" : [
        {
            "name" : "Scene",
            "nodes" : [
                0,
                1,
                2,
                3,
                4,
                5,
                6
            ]
        }
    ],
    "nodes" : [
        {
            "mesh" : 0,
            "name" : "ghosteyeBallsScared",
            "translation" : [
                0,
                0,
                -0.006608927622437477
            ]
        },
        {
            "mesh" : 1,
            "name" : "ghostBot",
            "rotation" : [
                0,
                0.2393156737089157,
                0,
                0.9709418416023254
            ]
        },
        {
            "mesh" : 2,
            "name" : "ghostTopScared"
        },
        {
            "mesh" : 3,
            "name" : "ghostInsideEye"
        },
        {
            "mesh" : 4,
            "name" : "ghostTopNormal"
        },
        {
            "mesh" : 5,
            "name" : "ghostFrown"
        },
        {
            "mesh" : 6,
            "name" : "ghosteyeBallsNormal",
            "translation" : [
                0,
                0,
                -0.006608927622437477
            ]
        }
    ],
    "materials" : [
        {
            "doubleSided" : true,
            "emissiveFactor" : [
                0.0037877702690499726,
                0.33024139820090426,
                0
            ],
            "extensions" : {
                "KHR_materials_clearcoat" : {
                    "clearcoatFactor" : 1,
                    "clearcoatRoughnessFactor" : 0.029999999329447746
                }
            },
            "name" : "Material.003",
            "pbrMetallicRoughness" : {
                "baseColorFactor" : [
                    0,
                    0.009100866504013538,
                    1,
                    1
                ],
                "metallicFactor" : 0.7136363387107849,
                "roughnessFactor" : 0.656000018119812
            }
        },
        {
            "doubleSided" : true,
            "emissiveFactor" : [
                0.7000000476837158,
                0.7000000476837158,
                0.7000000476837158
            ],
            "name" : "eyeshine",
            "pbrMetallicRoughness" : {
                "baseColorFactor" : [
                    0.800000011920929,
                    0.800000011920929,
                    0.800000011920929,
                    1
                ],
                "metallicFactor" : 0,
                "roughnessFactor" : 0.5
            }
        },
        {
            "doubleSided" : true,
            "emissiveFactor" : [
                0.29999998211860657,
                0,
                0
            ],
            "extensions" : {
                "KHR_materials_clearcoat" : {
                    "clearcoatFactor" : 0.5159090757369995,
                    "clearcoatRoughnessFactor" : 0.029999999329447746
                }
            },
            "name" : "normalColor",
            "pbrMetallicRoughness" : {
                "baseColorFactor" : [
                    1,
                    0,
                    0,
                    1
                ],
                "metallicFactor" : 0.28409090638160706,
                "roughnessFactor" : 0.32045453786849976
            }
        },
        {
            "doubleSided" : true,
            "emissiveFactor" : [
                0.30000004172325134,
                0.30000004172325134,
                0.30000004172325134
            ],
            "name" : "eyeinside",
            "pbrMetallicRoughness" : {
                "metallicFactor" : 0,
                "roughnessFactor" : 0
            }
        },
        {
            "doubleSided" : true,
            "emissiveFactor" : [
                0,
                0.017958723428325385,
                0.33024139820090426
            ],
            "extensions" : {
                "KHR_materials_clearcoat" : {
                    "clearcoatFactor" : 1,
                    "clearcoatRoughnessFactor" : 0.029999999329447746
                }
            },
            "name" : "blueEyes",
            "pbrMetallicRoughness" : {
                "baseColorFactor" : [
                    0,
                    0.009100866504013538,
                    1,
                    1
                ],
                "metallicFactor" : 0.7136363387107849,
                "roughnessFactor" : 0.656000018119812
            }
        }
    ],
    "meshes" : [
        {
            "name" : "eyeBall",
            "primitives" : [
                {
                    "attributes" : {
                        "POSITION" : 0,
                        "NORMAL" : 1,
                        "TEXCOORD_0" : 2
                    },
                    "indices" : 3,
                    "material" : 0
                },
                {
                    "attributes" : {
                        "POSITION" : 4,
                        "NORMAL" : 5,
                        "TEXCOORD_0" : 6
                    },
                    "indices" : 7,
                    "material" : 1
                }
            ]
        },
        {
            "name" : "bottomOfGhost",
            "primitives" : [
                {
                    "attributes" : {
                        "POSITION" : 8,
                        "NORMAL" : 9,
                        "TEXCOORD_0" : 10
                    },
                    "indices" : 11,
                    "material" : 2
                }
            ]
        },
        {
            "name" : "topPart",
            "primitives" : [
                {
                    "attributes" : {
                        "POSITION" : 12,
                        "NORMAL" : 13,
                        "TEXCOORD_0" : 14
                    },
                    "indices" : 15,
                    "material" : 2
                }
            ]
        },
        {
            "name" : "InsideEye",
            "primitives" : [
                {
                    "attributes" : {
                        "POSITION" : 16,
                        "NORMAL" : 17,
                        "TEXCOORD_0" : 18
                    },
                    "indices" : 19,
                    "material" : 3
                }
            ]
        },
        {
            "name" : "topPart.001",
            "primitives" : [
                {
                    "attributes" : {
                        "POSITION" : 20,
                        "NORMAL" : 21,
                        "TEXCOORD_0" : 22
                    },
                    "indices" : 23,
                    "material" : 2
                }
            ]
        },
        {
            "name" : "topPart.002",
            "primitives" : [
                {
                    "attributes" : {
                        "POSITION" : 24,
                        "NORMAL" : 25,
                        "TEXCOORD_0" : 26
                    },
                    "indices" : 27,
                    "material" : 3
                }
            ]
        },
        {
            "name" : "eyeBall.001",
            "primitives" : [
                {
                    "attributes" : {
                        "POSITION" : 28,
                        "NORMAL" : 29,
                        "TEXCOORD_0" : 30
                    },
                    "indices" : 31,
                    "material" : 4
                },
                {
                    "attributes" : {
                        "POSITION" : 32,
                        "NORMAL" : 33,
                        "TEXCOORD_0" : 34
                    },
                    "indices" : 7,
                    "material" : 1
                }
            ]
        }
    ],
    "accessors" : [
        {
            "bufferView" : 0,
            "componentType" : 5126,
            "count" : 462,
            "max" : [
                0.504900336265564,
                -0.15619748830795288,
                -0.5367480516433716
            ],
            "min" : [
                -0.504900336265564,
                -0.3085685074329376,
                -0.594456672668457
            ],
            "type" : "VEC3"
        },
        {
            "bufferView" : 1,
            "componentType" : 5126,
            "count" : 462,
            "type" : "VEC3"
        },
        {
            "bufferView" : 2,
            "componentType" : 5126,
            "count" : 462,
            "type" : "VEC2"
        },
        {
            "bufferView" : 3,
            "componentType" : 5123,
            "count" : 1644,
            "type" : "SCALAR"
        },
        {
            "bufferView" : 4,
            "componentType" : 5126,
            "count" : 32,
            "max" : [
                0.4593697190284729,
                -0.20317363739013672,
                -0.5831825733184814
            ],
            "min" : [
                -0.4593697190284729,
                -0.2543705999851227,
                -0.5961592793464661
            ],
            "type" : "VEC3"
        },
        {
            "bufferView" : 5,
            "componentType" : 5126,
            "count" : 32,
            "type" : "VEC3"
        },
        {
            "bufferView" : 6,
            "componentType" : 5126,
            "count" : 32,
            "type" : "VEC2"
        },
        {
            "bufferView" : 7,
            "componentType" : 5123,
            "count" : 108,
            "type" : "SCALAR"
        },
        {
            "bufferView" : 8,
            "componentType" : 5126,
            "count" : 645,
            "max" : [
                1.0659925937652588,
                -1.4363905191421509,
                1.0659923553466797
            ],
            "min" : [
                -1.0659918785095215,
                -1.7892435789108276,
                -1.065991759300232
            ],
            "type" : "VEC3"
        },
        {
            "bufferView" : 9,
            "componentType" : 5126,
            "count" : 645,
            "type" : "VEC3"
        },
        {
            "bufferView" : 10,
            "componentType" : 5126,
            "count" : 645,
            "type" : "VEC2"
        },
        {
            "bufferView" : 11,
            "componentType" : 5123,
            "count" : 3072,
            "type" : "SCALAR"
        },
        {
            "bufferView" : 12,
            "componentType" : 5126,
            "count" : 7153,
            "max" : [
                1.0649439096450806,
                0.978796660900116,
                1.0649434328079224
            ],
            "min" : [
                -1.0649429559707642,
                -1.43639075756073,
                -1.0649429559707642
            ],
            "type" : "VEC3"
        },
        {
            "bufferView" : 13,
            "componentType" : 5126,
            "count" : 7153,
            "type" : "VEC3"
        },
        {
            "bufferView" : 14,
            "componentType" : 5126,
            "count" : 7153,
            "type" : "VEC2"
        },
        {
            "bufferView" : 15,
            "componentType" : 5123,
            "count" : 36759,
            "type" : "SCALAR"
        },
        {
            "bufferView" : 16,
            "componentType" : 5126,
            "count" : 977,
            "max" : [
                0.7191540598869324,
                0.11223877966403961,
                -0.5367480516433716
            ],
            "min" : [
                -0.719153642654419,
                -0.5121612548828125,
                -0.9888824224472046
            ],
            "type" : "VEC3"
        },
        {
            "bufferView" : 17,
            "componentType" : 5126,
            "count" : 977,
            "type" : "VEC3"
        },
        {
            "bufferView" : 18,
            "componentType" : 5126,
            "count" : 977,
            "type" : "VEC2"
        },
        {
            "bufferView" : 19,
            "componentType" : 5123,
            "count" : 3783,
            "type" : "SCALAR"
        },
        {
            "bufferView" : 20,
            "componentType" : 5126,
            "count" : 6670,
            "max" : [
                1.0649439096450806,
                0.978796660900116,
                1.0649434328079224
            ],
            "min" : [
                -1.0649429559707642,
                -1.43639075756073,
                -1.0649429559707642
            ],
            "type" : "VEC3"
        },
        {
            "bufferView" : 21,
            "componentType" : 5126,
            "count" : 6670,
            "type" : "VEC3"
        },
        {
            "bufferView" : 22,
            "componentType" : 5126,
            "count" : 6670,
            "type" : "VEC2"
        },
        {
            "bufferView" : 23,
            "componentType" : 5123,
            "count" : 35373,
            "type" : "SCALAR"
        },
        {
            "bufferView" : 24,
            "componentType" : 5126,
            "count" : 3675,
            "max" : [
                0.6736709475517273,
                -0.7327522039413452,
                -0.5817914009094238
            ],
            "min" : [
                -0.7349531650543213,
                -1.0125077962875366,
                -1.0367029905319214
            ],
            "type" : "VEC3"
        },
        {
            "bufferView" : 25,
            "componentType" : 5126,
            "count" : 3675,
            "type" : "VEC3"
        },
        {
            "bufferView" : 26,
            "componentType" : 5126,
            "count" : 3675,
            "type" : "VEC2"
        },
        {
            "bufferView" : 27,
            "componentType" : 5123,
            "count" : 16992,
            "type" : "SCALAR"
        },
        {
            "bufferView" : 28,
            "componentType" : 5126,
            "count" : 600,
            "max" : [
                0.5736516118049622,
                -0.0867595449090004,
                -0.5367480516433716
            ],
            "min" : [
                -0.5736516118049622,
                -0.372945100069046,
                -0.6645650267601013
            ],
            "type" : "VEC3"
        },
        {
            "bufferView" : 29,
            "componentType" : 5126,
            "count" : 600,
            "type" : "VEC3"
        },
        {
            "bufferView" : 30,
            "componentType" : 5126,
            "count" : 600,
            "type" : "VEC2"
        },
        {
            "bufferView" : 31,
            "componentType" : 5123,
            "count" : 2244,
            "type" : "SCALAR"
        },
        {
            "bufferView" : 32,
            "componentType" : 5126,
            "count" : 32,
            "max" : [
                0.4867244362831116,
                -0.1758187860250473,
                -0.6441962122917175
            ],
            "min" : [
                -0.4867244362831116,
                -0.26831597089767456,
                -0.6676411628723145
            ],
            "type" : "VEC3"
        },
        {
            "bufferView" : 33,
            "componentType" : 5126,
            "count" : 32,
            "type" : "VEC3"
        },
        {
            "bufferView" : 34,
            "componentType" : 5126,
            "count" : 32,
            "type" : "VEC2"
        }
    ],
    "bufferViews" : [
        {
            "buffer" : 0,
            "byteLength" : 5544,
            "byteOffset" : 0
        },
        {
            "buffer" : 0,
            "byteLength" : 5544,
            "byteOffset" : 5544
        },
        {
            "buffer" : 0,
            "byteLength" : 3696,
            "byteOffset" : 11088
        },
        {
            "buffer" : 0,
            "byteLength" : 3288,
            "byteOffset" : 14784
        },
        {
            "buffer" : 0,
            "byteLength" : 384,
            "byteOffset" : 18072
        },
        {
            "buffer" : 0,
            "byteLength" : 384,
            "byteOffset" : 18456
        },
        {
            "buffer" : 0,
            "byteLength" : 256,
            "byteOffset" : 18840
        },
        {
            "buffer" : 0,
            "byteLength" : 216,
            "byteOffset" : 19096
        },
        {
            "buffer" : 0,
            "byteLength" : 7740,
            "byteOffset" : 19312
        },
        {
            "buffer" : 0,
            "byteLength" : 7740,
            "byteOffset" : 27052
        },
        {
            "buffer" : 0,
            "byteLength" : 5160,
            "byteOffset" : 34792
        },
        {
            "buffer" : 0,
            "byteLength" : 6144,
            "byteOffset" : 39952
        },
        {
            "buffer" : 0,
            "byteLength" : 85836,
            "byteOffset" : 46096
        },
        {
            "buffer" : 0,
            "byteLength" : 85836,
            "byteOffset" : 131932
        },
        {
            "buffer" : 0,
            "byteLength" : 57224,
            "byteOffset" : 217768
        },
        {
            "buffer" : 0,
            "byteLength" : 73518,
            "byteOffset" : 274992
        },
        {
            "buffer" : 0,
            "byteLength" : 11724,
            "byteOffset" : 348512
        },
        {
            "buffer" : 0,
            "byteLength" : 11724,
            "byteOffset" : 360236
        },
        {
            "buffer" : 0,
            "byteLength" : 7816,
            "byteOffset" : 371960
        },
        {
            "buffer" : 0,
            "byteLength" : 7566,
            "byteOffset" : 379776
        },
        {
            "buffer" : 0,
            "byteLength" : 80040,
            "byteOffset" : 387344
        },
        {
            "buffer" : 0,
            "byteLength" : 80040,
            "byteOffset" : 467384
        },
        {
            "buffer" : 0,
            "byteLength" : 53360,
            "byteOffset" : 547424
        },
        {
            "buffer" : 0,
            "byteLength" : 70746,
            "byteOffset" : 600784
        },
        {
            "buffer" : 0,
            "byteLength" : 44100,
            "byteOffset" : 671532
        },
        {
            "buffer" : 0,
            "byteLength" : 44100,
            "byteOffset" : 715632
        },
        {
            "buffer" : 0,
            "byteLength" : 29400,
            "byteOffset" : 759732
        },
        {
            "buffer" : 0,
            "byteLength" : 33984,
            "byteOffset" : 789132
        },
        {
            "buffer" : 0,
            "byteLength" : 7200,
            "byteOffset" : 823116
        },
        {
            "buffer" : 0,
            "byteLength" : 7200,
            "byteOffset" : 830316
        },
        {
            "buffer" : 0,
            "byteLength" : 4800,
            "byteOffset" : 837516
        },
        {
            "buffer" : 0,
            "byteLength" : 4488,
            "byteOffset" : 842316
        },
        {
            "buffer" : 0,
            "byteLength" : 384,
            "byteOffset" : 846804
        },
        {
            "buffer" : 0,
            "byteLength" : 384,
            "byteOffset" : 847188
        },
        {
            "buffer" : 0,
            "byteLength" : 256,
            "byteOffset" : 847572
        }
    ],
    "buffers" : [
        {
            "byteLength" : 847828,
            "uri" : "data:application/octet-stream;base64,"
        }
    ]
}
